<svg width="22" height="22" viewBox="0 0 22 22" fill="none" xmlns="http://www.w3.org/2000/svg">
<path d="M11.125 2.46926H6.17763C4.40904 2.46926 3.52475 2.46926 2.84924 2.81345C2.25504 3.11621 1.77195 3.5993 1.46919 4.1935C1.125 4.86901 1.125 5.7533 1.125 7.52189V16.364C1.125 18.1326 1.125 19.0168 1.46919 19.6924C1.77195 20.2866 2.25504 20.7697 2.84924 21.0724C3.52475 21.4166 4.40904 21.4166 6.17763 21.4166H15.8618C16.8408 21.4166 17.3303 21.4166 17.7318 21.309C18.8215 21.017 19.6728 20.1658 19.9648 19.0761C20.0724 18.6745 20.0724 18.185 20.0724 17.2061M17.9671 7.73242V1.41663M14.8092 4.57452H21.125M9.01974 8.25873C9.01974 9.42144 8.07718 10.364 6.91447 10.364C5.75177 10.364 4.80921 9.42144 4.80921 8.25873C4.80921 7.09603 5.75177 6.15347 6.91447 6.15347C8.07718 6.15347 9.01974 7.09603 9.01974 8.25873ZM13.7461 11.8567L4.842 19.9514C4.34117 20.4067 4.09076 20.6343 4.06861 20.8316C4.04941 21.0025 4.11495 21.172 4.24415 21.2856C4.39319 21.4166 4.73161 21.4166 5.40846 21.4166H15.2892C16.8041 21.4166 17.5615 21.4166 18.1565 21.1621C18.9033 20.8426 19.4984 20.2476 19.8178 19.5007C20.0724 18.9058 20.0724 18.1483 20.0724 16.6335C20.0724 16.1237 20.0724 15.8688 20.0167 15.6316C19.9466 15.3333 19.8124 15.0539 19.6232 14.8128C19.4727 14.621 19.2736 14.4618 18.8756 14.1435L15.9311 11.7879C15.5328 11.4692 15.3336 11.3098 15.1143 11.2536C14.9209 11.204 14.7175 11.2104 14.5276 11.2721C14.3123 11.342 14.1235 11.5136 13.7461 11.8567Z" stroke="#B8113C" stroke-linecap="round" stroke-linejoin="round"/>
</svg>
