<svg width="100" height="100" viewBox="0 0 100 100" fill="none" xmlns="http://www.w3.org/2000/svg">
<path d="M50 100L22.4139 62.0689H41.3793V41.3793H58.6207V62.0689H77.5861L50 100Z" fill="#B8113C"/>
<path d="M55.1725 34.4828H44.8275C42.9311 34.4828 41.3793 32.931 41.3793 31.0345C41.3793 29.1381 42.9311 27.5863 44.8275 27.5863H55.1725C57.0689 27.5863 58.6207 29.1381 58.6207 31.0345C58.6207 32.931 57.0689 34.4828 55.1725 34.4828Z" fill="#B8113C"/>
<path d="M55.1725 20.6897H44.8275C42.9311 20.6897 41.3793 19.1379 41.3793 17.2415C41.3793 15.345 42.9311 13.7932 44.8275 13.7932H55.1725C57.0689 13.7932 58.6207 15.345 58.6207 17.2415C58.6207 19.1379 57.0689 20.6897 55.1725 20.6897Z" fill="#B8113C"/>
<path d="M55.1725 6.89648H44.8275C42.9311 6.89648 41.3793 5.34473 41.3793 3.44824C41.3793 1.55176 42.9311 4.76837e-07 44.8275 4.76837e-07H55.1725C57.0689 4.76837e-07 58.6207 1.55176 58.6207 3.44824C58.6207 5.34492 57.0689 6.89648 55.1725 6.89648Z" fill="#B8113C"/>
</svg>
